<?xml version="1.0" encoding="utf-8"?>
<!-- Generator: Adobe Illustrator 18.0.0, SVG Export Plug-In . SVG Version: 6.00 Build 0)  -->
<!DOCTYPE svg PUBLIC "-//W3C//DTD SVG 1.1//EN" "http://www.w3.org/Graphics/SVG/1.1/DTD/svg11.dtd">
<svg version="1.1" id="Layer_1" xmlns="http://www.w3.org/2000/svg" xmlns:xlink="http://www.w3.org/1999/xlink" x="0px" y="0px"
	 viewBox="0 0 576.2 689.4" style="enable-background:new 0 0 576.2 689.4;" xml:space="preserve">
<style type="text/css">
	.st0{fill:#851525;}
</style>
<g>
	<path class="st0" d="M550.9,66.8c4.1,0,6.8,4,6.6,8.1l-9.7,93.7c0,0.4,0.1,0.7,0.4,0.9l13.3,8.7c0.6,0.4,1.4,0,1.5-0.7l13.2-118.9
		c0.3-4-2.2-7.5-7-7.5h-372c-1,0-1.4,1.3-0.6,1.8c5.8,3.8,19.4,12.6,24.1,13.9c0.1,0,0.2,0,0.3,0H550.9z"/>
	<path class="st0" d="M256.8,611.7c81.8-63.8,71.3-148.7,71.3-148.7c-40.4,80.9-147.7,55.9-147.7,55.9
		c110.7,29.5,126.5-9.7,126.5-9.7C304.5,569.6,256.8,611.7,256.8,611.7"/>
	<path class="st0" d="M572,218.2c-1.8-1.2-12.3-6.8-10.6-22.5c0,0-7.7-8.3-11.7-10.8c-24.2-17-35.7-23.3-41.1-25.6
		c6.8,9.2,11.6,18,10.5,24c-0.4,2.2-2.2,4-4.5,4.4c-49.6,8.8-81.9-31.7-81.9-31.7c3-2.8,4-11,4-15.1c0-1.2-0.3-2.5-0.9-3.5
		c-2.9-5-13-20.5-20.2-17.6c-6.9,2.1-8.8,3.6-15,1.4c-2.8-1-5.4-2.6-7.8-4.3c-41.5-29.9-102.2-22.2-102.4-22.2
		C192.4,95,136.6,11.4,126.9,1c-1.7-2.5-2.4,0.4-2.4,0.4s3.5,66.1,85.1,122.1c9,6.3,22.3,19.7,68.2,24.6
		c13.4,1.5,47.8-3.3,74.3,23.5c-23.7-16.8-100.4-10.8-138.6,19.6c54.5-1.5,116.5,9.2,120.4,33.7c3.6,22.5-38.8,17.8-38.8,17.8
		s37.7,47.7,102.6,28.7c0,0-38.7,23-86.6,2.8c-16.8-7.1-35.5-8.2-52.9-3c-9.6,2.9-20.3,7.8-31.6,15.8c-5.3,3.6-19.2,14.5-28,39.6
		c-0.3-0.1-0.2,0-0.5-0.1c3.9-15,9.2-43.1,51.4-66.9c6.6-3.7,12.4-8.7,16.5-14.9c8.5-12.9,4.2-21-5.7-25.5
		c-6.2-3.1-46-14.6-99.6,31.7c-42.6,36.8-58.9,77.2-58.8,126.6c0,6.9-2.1,61.3,43.3,98.5c42.6,34.9,121.8,19.7,107.6,14.7
		c-79.4-28.2-66.9-100.5-66.9-100.5s2.4,84,101.2,89.1c0,0,27-9.9,32.2-39.2c-11.4,3.6-31.2,4.4-44.1,2.6
		c-36.5-5.2-65.4-35.2-69.2-71.9c-5.1-49,33.3-94.2,81.1-90.4c17.6,1.4,58.3,28.9,113.5,2.4c70.1-25.9,125.7,16.9,106.6,32.4
		c17-10.8,25.1-21,28.1-29.7c-3.6-10.7-10.7-25-24.2-30.3c-17.9-7-45.5,6.6-45.5,6.6S455,238.5,436,241.4l-0.4,0
		c-1.9,0-30.3,7.6-46.9-22.9c0.4,0.4,6.9,7.1,17.9,12c-0.3-0.2-0.5-0.3-0.8-0.5c0.9,0.5,1.9,0.9,2.9,1.4c10.4,4.2,15.8,4.7,32.2-0.7
		l0.4,0c1.1-0.2,23.3-5,28.8,15.3c7.5-2.6,32.3-9.6,52.5,1.9c12.5,7.1,18.5,16.5,22.3,34.7c9.6-8.5,19.3-23.3,19.3-23.3
		S578.9,231.1,572,218.2 M165.6,371.7c-3.6,22.7-16.6,26.7-16.6,26.7c-21.1,7.8-21.9-40.7-21.9-40.7
		C144.9,405.9,165,372.7,165.6,371.7 M164.9,453.8c-8.5,12.7-28.9-13.8-28.9-13.8c29.8,19.5,27.3-6.8,27.2-7.6
		C170.5,446.4,164.9,453.8,164.9,453.8 M159.8,322.8c-22.5-1.4-3.6-46.1-3.6-46.1c-3.1,51.3,28.7,29.1,29.6,28.4
		C173.4,324.4,159.8,322.8,159.8,322.8 M424,197.9c-12.6-26.9-41.9-40.2-53.3-44.4c14.3,4.6,42.9,10.6,54.2,2.4
		c0,0-7.4,14.7-13.5,15.1C411.4,171,426,184.9,424,197.9 M553.3,236.8c0,0-2.7-11-8.2-19.8c0,0-10.3-16-11.6-5.2
		c0,0-5.6-11.8-0.7-14.9c4.8-3.1,19.4,17.9,19.2,18.7C551.7,216.4,555.7,228.7,553.3,236.8"/>
	<path class="st0" d="M528.8,390.2l1.5,4.7C530.1,393.2,529.5,391.6,528.8,390.2"/>
	<path class="st0" d="M527.4,461.6l-11-7c0,0,0,0,0,0c-11.4-7.7-29.4-19.3-49.9-33.2c-3.3-2.2-133.6-89.6-133.6-89.6
		c-4.4-2.9-8.3-5.4-11.4-7.5c-5.1-3.4-13.5-7.8-20.6-5c-6.1,2.5-5,8.2-5,8.2c0.2-2.2,6.3-2.2,10.9-0.3c3,1.3,6.5,4.7,8.1,7.8
		c6.1,12.1,21,44.7,26.1,64.1c16.6,62.6,9.7,129.6-21.9,186c-14.2,25.3-33.7,49-60.3,62l-167-134.2c-15.9-12.9-27.4-25-31.5-48.6
		c-0.4-2.6-0.7-5.2-1-8l-9-85.3c-5.8-54.5,8.3-109.7,41.4-153.3c28.6-37.6,72.3-67.3,119.4-76.6c0.9-0.2,1.1-1.3,0.3-1.8
		c-8.1-4.6-11.9-8.1-13.1-9.3c-0.2-0.3-0.6-0.3-0.9-0.2c-27.5,8.1-75.9-3.1-102.7-21.3c-4.2,38.6,29,53.3,29,53.3
		c-5.9,5.4-16.2,13.9-21.7,19.6c-9.6,7.7-25.3,4.3-30.9,3.3c-0.2,0.3-0.4,0.7-0.5,1c0,0-5.3,7.8,6.5,19.6
		c-17.4,28.8-29.7,54.1-36.9,82.1L17.7,75.2c-0.4-4.2,2.9-7.8,7.1-7.8h109.8c0.8,0,1.2-0.8,0.9-1.5c-1.3-2.3-3.9-7.2-6.3-14.1
		c-0.1-0.4-0.5-0.7-0.9-0.7H7.2c-4.2,0-7.6,3.6-7.1,7.8L30,342.2l9.4,88.9l3.4,32.1c0.4,3.8,1.1,7.5,2,11.2c0.2,0.8,0.4,1.6,0.6,2.4
		c0.2,0.8,0.4,1.6,0.6,2.3c0,0,0,0,0.1-0.1c4.9,16.2,15.3,30.8,28.8,41.5l4.2,3.4l0,0l202.8,162.4l0.1,0l1.9,1.5
		c1.3,1.1,2.9,1.6,4.5,1.6c1.6,0,3.2-0.5,4.5-1.6l0.7-0.6h0l207-165c1.1-0.8,2-1.7,3-2.5c0.4-0.3,0.7-0.7,1.1-1
		c0.5-0.4,1-0.9,1.4-1.3c15.9-14.2,22.7-28.9,25.5-46.5C532.1,467.2,530.5,463.6,527.4,461.6 M484.7,513.7L315.3,648.9
		c-0.1,0,0,0-0.1,0l-18.2,14.2l0,0l-2.2,1.8l-2.5,2c-1.2,0.9-2.7,1.3-4.1,1.3c-1.6,0-3.2-0.5-4.5-1.6l-0.1-0.1l119.9-121.2
		c4.1-2.2-28.1-125.1-28.1-125.1l68.1,99.6l19.4-17c0,0-37-52.8-33.9-56c1.8,2.3,43.2,44.3,55.8,56l2.7,2.4c0.3,0.3,0.6,0.5,0.8,0.6
		c0,0,0,0-0.1,0.1l2.7,2.6C488.9,510.1,486.9,511.8,484.7,513.7"/>
	<path class="st0" d="M311,341.4c-0.5-1-1.4-1.8-2.6-2c-10.9-1.9-19.7,3.5-19.7,3.5l0,0c-5.4,2.9-11.3,7.6-14.7,12.2
		c0,0-6.2,9.3-1.3,8.7c13.8-5.2,37.9-5.2,47.2,3.1C321.4,363.7,313.6,346.7,311,341.4"/>
	<path class="st0" d="M543.5,357.5l7.3-63.3c0.1-0.9-1-1.5-1.7-0.8l-16.2,16.5c-0.2,0.2-0.3,0.4-0.3,0.6l-4.7,45.5
		c-0.1,0.5,0.3,1,0.9,1.1l13.6,1.2C542.9,358.4,543.4,358.1,543.5,357.5"/>
	<path class="st0" d="M526.5,368.7c0,0-1.3-0.1-1.9-0.2c-4.8-0.6-9.3-1.3-13.6-1.9l-0.1,0l0,0c-35-4.9-59.3-8.8-95.1-13.2
		c-26.2-3.2-41.1-5.2-50.5-6.7l114.3,69.2c26.5,14.3,47.6,26,48.7,26.7c2.8,1.9,6.7,0.1,7-3.3l6.4-63.5c0.3-2.8-1.6-5.3-4.4-5.7
		L526.5,368.7z M520.4,424.1l-109.3-55.6c39.9,13.8,74.2,30.5,101.5,38.3l12.2-23.2L520.4,424.1z"/>
</g>
</svg>
